<svg xmlns="http://www.w3.org/2000/svg" width="35.93" height="32" viewBox="0 0 24 24" fill="#CBDCEB" stroke="#00D8FF" stroke-width="2" stroke-linecap="round" stroke-linejoin="round">
  <path d="M6 2C5.44772 2 5 2.44772 5 3V21C5 21.5523 5.44772 22 6 22H18C18.5523 22 19 21.5523 19 21V3C19 2.44772 18.5523 2 18 2H6ZM6 0C4.34315 0 3 1.34315 3 3V21C3 22.6569 4.34315 24 6 24H18C19.6569 24 21 22.6569 21 21V3C21 1.34315 19.6569 0 18 0H6ZM17 3V7H7V3H17ZM7 9H17V11H7V9ZM7 13H17V15H7V13ZM7 17H17V19H7V17Z"/>
</svg>
